<?xml version="1.0" encoding="utf-8"?>
<!-- Generator: Adobe Illustrator 19.2.1, SVG Export Plug-In . SVG Version: 6.00 Build 0)  -->
<svg version="1.1" id="图层_1" xmlns="http://www.w3.org/2000/svg" xmlns:xlink="http://www.w3.org/1999/xlink" x="0px" y="0px"
	 viewBox="0 0 500 500" style="enable-background:new 0 0 500 500;" xml:space="preserve">
<style type="text/css">
	.st0{fill:#E47C24;}
	.st1{fill:#CB6A17;}
	.st2{fill:#E50012;}
	.st3{fill:#F299B8;}
	.st4{fill:#1A8FC5;}
	.st5{fill:#99C938;}
</style>
<g>
	<polyline class="st0" points="284.3,384.3 248.9,384.3 248.9,442 	"/>
</g>
<g>
	<polyline class="st1" points="213.5,384.3 248.9,384.3 248.9,442 	"/>
</g>
<g>
	<polygon class="st2" points="200.3,450.1 213.5,497 288,497 288.1,496.3 	"/>
</g>
<g>
	<polygon class="st3" points="297.7,449.4 200,449.4 200.3,450.1 288.1,496.3 	"/>
</g>
<g>
	<path class="st4" d="M69.7,172.8c0,2.6,0.1,5.2,0.2,7.7l0,0c0,0,0.1,3.3,0.7,9.2c0,0.2,0,0.4,0.1,0.6
		c3.5,32.7,22.6,139.1,124.1,193.9h49.8h4.3h4.5h6L237.3,4.4C143.8,10.1,69.7,83.3,69.7,172.8z"/>
</g>
<g>
	<path class="st5" d="M248.9,4.1L248.9,4.1c-3.9,0-7.7,0.2-11.6,0.4l22.1,379.8h43.8C424.1,319,427.9,180.6,427.9,180.6
		c0.1-2.6,0.2-5.2,0.2-7.8C428.1,79.6,347.9,4.1,248.9,4.1z"/>
</g>
</svg>
