<?xml version="1.0" encoding="utf-8"?>
<!-- Generator: Adobe Illustrator 19.2.1, SVG Export Plug-In . SVG Version: 6.00 Build 0)  -->
<svg version="1.1" id="OBJECTS" xmlns="http://www.w3.org/2000/svg" xmlns:xlink="http://www.w3.org/1999/xlink" x="0px" y="0px"
	 viewBox="0 0 500 500" style="enable-background:new 0 0 500 500;" xml:space="preserve">
<style type="text/css">
	.st0{fill:#FFFFFF;}
	.st1{fill:#EAF5FD;}
</style>
<g id="XMLID_44_">
	<path id="XMLID_343_" class="st0" d="M448.4,248.2c-0.8,0-1.5,0-2.3,0.1c-8-31.1-36.3-54.2-69.9-54.2c-27.1,0-50.7,15-63.1,37.1
		c-11.5-11.7-27.5-19-45.2-19c-3.2,0-6.4,0.2-9.4,0.7c-4.2-40.9-38.7-72.9-80.7-72.9c-42.1,0-76.7,32.1-80.8,73.1
		c-3-0.6-6.2-1-9.4-1c-24.9,0-45.1,20.2-45.1,45.1c0,3.1,0.3,6.1,0.9,9.1c-0.3,0-0.6,0-0.9,0c-19.9,0-36.1,16.2-36.1,36.1
		c0,19.9,16.2,36.1,36.1,36.1h405.8c24.9,0,45.1-20.2,45.1-45.1C493.5,268.4,473.3,248.2,448.4,248.2z M124.9,282.7
		c0.6,0.6,1.3,1.1,1.9,1.6h-3.1C124.1,283.8,124.5,283.2,124.9,282.7z"/>
	<path id="XMLID_174_" class="st1" d="M446.5,295.6c-19.2,10.1-39.9,14.7-62.1,13.9h-3c-29.1-0.1-56.2-7.4-81.4-22l-5.2-4
		c-13.7,8.9-28.7,15.7-44.9,20.2l-42.9,5.8c-22.2,0.8-42.9-3.8-62.1-13.9c-4.5-1.5-8.8-3.2-13.1-5.1c-23.3,12.1-49.6,19-75.1,19
		c-14.6,0-28.7-2.1-42.1-5.9c0.6,14.9,12.9,26.8,28,26.8h405.8c20.4,0,37.1-16.6,37.1-37.1c0-5.8-1.4-11.2-3.7-16.1
		C471.1,285.2,459.4,291.4,446.5,295.6z"/>
</g>
</svg>
