<?xml version="1.0" encoding="utf-8"?>
<!-- Generator: Adobe Illustrator 19.2.1, SVG Export Plug-In . SVG Version: 6.00 Build 0)  -->
<svg version="1.1" id="OBJECTS" xmlns="http://www.w3.org/2000/svg" xmlns:xlink="http://www.w3.org/1999/xlink" x="0px" y="0px"
	 viewBox="0 0 500 500" style="enable-background:new 0 0 500 500;" xml:space="preserve">
<style type="text/css">
	.st0{fill:#FFFFFF;}
	.st1{fill:#EAF5FD;}
</style>
<g id="XMLID_49_">
	<path id="XMLID_333_" class="st0" d="M64.4,376.2h345.6c47.7,0,86.4-38.7,86.4-86.4s-38.7-86.4-86.4-86.4
		c0-31.8-25.8-57.6-57.6-57.6c-19.4,0-36.5,9.6-47,24.3c-20.5-32-56.3-53.1-97-53.1c-63.6,0-115.2,51.6-115.2,115.2
		c0,14.9,2.8,29,8,42.1C91.2,266,78.4,261,64.4,261c-31.8,0-57.6,25.8-57.6,57.6C6.8,350.4,32.6,376.2,64.4,376.2z"/>
	<path id="XMLID_176_" class="st1" d="M479.5,265.3c-43.9,31.7-99.3,50.4-152.5,50.4c-15.1,0-29.7-1.4-44-4
		c-12.8,1.9-64,8.7-66.1,8.8c-0.1,0-0.2,0-0.3,0c-14.6,0-28.8-1.2-42.7-3.5c-20.7,5.4-42,8.3-62.9,8.3c-31.8,0-61.9-6.1-90-17.1
		c-0.8,3.4-1.3,6.9-1.3,10.5c0,24.7,20.1,44.8,44.8,44.8h345.6c40.6,0,73.6-33,73.6-73.6C483.7,281.2,482.2,272.9,479.5,265.3z"/>
</g>
</svg>
