<?xml version="1.0" encoding="utf-8"?>
<!-- Generator: Adobe Illustrator 19.2.1, SVG Export Plug-In . SVG Version: 6.00 Build 0)  -->
<svg version="1.1" id="OBJECTS" xmlns="http://www.w3.org/2000/svg" xmlns:xlink="http://www.w3.org/1999/xlink" x="0px" y="0px"
	 viewBox="0 0 500 500" style="enable-background:new 0 0 500 500;" xml:space="preserve">
<style type="text/css">
	.st0{fill:#FFFFFF;}
	.st1{fill:#EAF5FD;}
</style>
<g id="XMLID_39_">
	<path id="XMLID_349_" class="st0" d="M438.8,254.7c-3.5,0-6.9,0.4-10.2,1c6.5-13.3,10.2-28.3,10.2-44.2
		c0-55.7-45.2-100.9-100.9-100.9c-44.9,0-82.9,29.3-96,69.9c-14.3-7.8-30.7-12.2-48.1-12.2c-53.5,0-97.3,41.7-100.7,94.4
		c-8.5-5-18.4-7.9-29.1-7.9c-31.8,0-57.7,25.8-57.7,57.7C6.4,344.2,32.2,370,64,370h374.8c31.8,0,57.7-25.8,57.7-57.7
		C496.5,280.5,470.7,254.7,438.8,254.7z"/>
	<path id="XMLID_164_" class="st1" d="M462.7,300c-22.8,3.1-45.7,6.1-68.5,9.2c-35.5,1.3-68.6-6.1-99.3-22.2
		c-12.2-4-23.7-9-34.6-15.1c-44.2,32.5-100.4,51.7-154.4,51.7c-30.4,0-59.3-5.5-86.4-15.6c-0.1,1.4-0.2,2.9-0.2,4.3
		c0,24.7,20.1,44.8,44.8,44.8h374.8c24.7,0,44.8-20.1,44.8-44.8c0-6.3-1.3-12.3-3.7-17.8C474.3,296.5,468.5,298.4,462.7,300z"/>
</g>
</svg>
