<?xml version="1.0" encoding="utf-8"?>
<!-- Generator: Adobe Illustrator 19.2.1, SVG Export Plug-In . SVG Version: 6.00 Build 0)  -->
<svg version="1.1" id="图层_1" xmlns="http://www.w3.org/2000/svg" xmlns:xlink="http://www.w3.org/1999/xlink" x="0px" y="0px"
	 viewBox="0 0 500 500" style="enable-background:new 0 0 500 500;" xml:space="preserve">
<style type="text/css">
	.st0{fill:#F5C200;}
	.st1{fill:#FF7E1D;}
	.st2{fill:#FA2900;}
	.st3{fill:#F5D93D;}
	.st4{fill:#F299B8;}
</style>
<g>
	<path class="st0" d="M155.4,301.8l-42.3,185.5l84.5,0.3c0,0-16.7-133.9,45.9-135.8c5.2,0.2,9.7,1.5,13.9,3.3l-14.1-53.4H155.4z"/>
</g>
<g>
	<path class="st1" d="M373.9,487.3l-42.3-185.5h-88.4l14.1,53.4c45.9,20.2,32,132.4,32,132.4L373.9,487.3z"/>
</g>
<g>
	<path class="st0" d="M489.3,301.8c0,0-79.8-261.9-231.4-252.1c-0.9,0.1-3.4,0.4-6.5,0.8l41.2,251.4h85.6H489.3z"/>
</g>
<g>
	<path class="st2" d="M405.8,135.5c-11.3,0-18,9-18,20.2s9.1,20.4,20.4,20.4c8.1,0,14.7-4.4,18-11.2L405.8,135.5z"/>
</g>
<g>
	<circle class="st2" cx="421.7" cy="260.8" r="29.1"/>
</g>
<g>
	<path class="st2" d="M308.6,176.1c0-19.6-15.9-35.6-35.6-35.6c-2.3,0-4.6,0.3-6.8,0.7l11.5,70C295.1,208.9,308.6,194.1,308.6,176.1
		z"/>
</g>
<g>
	<g>
		<path class="st3" d="M251.4,50.4c-6.9,0.9-17.1,2.5-21.5,3.7c-46.8,13-84.6,37.7-114.8,66.5c16.1,2.3,28.5,16,28.5,32.7
			c0,18.3-14.8,33.2-33.2,33.2c-15.4,0-28.2-10.5-31.9-24.7C26.8,229.8,8.1,301.8,8.1,301.8h240.6h43.9L251.4,50.4z"/>
	</g>
	<g>
		<path class="st4" d="M110.3,186.5c18.3,0,33.2-14.8,33.2-33.2c0-16.7-12.4-30.4-28.5-32.7c-13.7,13.1-25.9,27-36.6,41.2
			C82.1,176.1,94.9,186.5,110.3,186.5z"/>
	</g>
</g>
<g>
	<path class="st4" d="M237.5,176.1c0,19.6,15.9,35.6,35.6,35.6c1.6,0,3.2-0.3,4.7-0.5l-11.5-70C249.9,144.4,237.5,158.8,237.5,176.1
		z"/>
</g>
<g>
	<path class="st4" d="M153.9,301.5c0-16.4,13.3-29.8,29.8-29.8s29.8,13.3,29.8,29.8"/>
</g>
</svg>
