<?xml version="1.0" encoding="utf-8"?>
<!-- Generator: Adobe Illustrator 19.2.1, SVG Export Plug-In . SVG Version: 6.00 Build 0)  -->
<svg version="1.1" id="图层_1" xmlns="http://www.w3.org/2000/svg" xmlns:xlink="http://www.w3.org/1999/xlink" x="0px" y="0px"
	 viewBox="0 0 500 500" style="enable-background:new 0 0 500 500;" xml:space="preserve">
<style type="text/css">
	.st0{fill:#FF1C00;}
	.st1{fill:#E50012;}
	.st2{fill:#F5C200;}
	.st3{fill:#EBDA5A;}
	.st4{fill:#FF7E1D;}
</style>
<g>
	<path class="st0" d="M41.7,164.4c15.6,4.2,27.2,18.3,27.2,35.3c0,20.3-16.4,36.7-36.7,36.7c-5.5,0-10.7-1.3-15.4-3.5
		c-5.3,22.9-8.2,47.1-8.2,71.9h270.2L202.8,32.3C134.1,47.8,76,97,41.7,164.4z"/>
</g>
<g>
	<path class="st1" d="M307.4,35.5c-1.1,14.9-13.3,26.8-28.5,26.8c-16,0-28.9-13-28.9-28.9c0-2.2,0.8-4.2,1.3-6.3
		c-0.6,0-1.2-0.1-1.8-0.1c-15.9,0-31.5,1.9-46.5,5.3l76.1,272.5H490C490,174.5,412.2,65.5,307.4,35.5z"/>
</g>
<g>
	<path class="st2" d="M278.8,62.3c15.2,0,27.4-11.9,28.5-26.8c-18-5.2-36.8-8.2-56.2-8.4c-0.5,2.1-1.3,4-1.3,6.3
		C249.9,49.4,262.9,62.3,278.8,62.3z"/>
</g>
<g>
	<path class="st3" d="M68.9,199.6c0-17-11.6-31.1-27.2-35.3c-10.8,21.2-19.2,44.2-24.9,68.5c4.7,2.2,9.9,3.5,15.4,3.5
		C52.5,236.3,68.9,219.9,68.9,199.6z"/>
</g>
<g>
	<circle class="st3" cx="183" cy="267.4" r="19.8"/>
</g>
<g>
	<circle class="st2" cx="416.7" cy="218.2" r="29.4"/>
</g>
<g>
	<path class="st2" d="M276.1,149c0-20.3-16.4-36.7-36.7-36.7c-4.8,0-9.3,1-13.5,2.6l21.7,69.7C263.9,181,276.1,166.4,276.1,149z"/>
</g>
<g>
	<path class="st3" d="M202.8,149c0,20.3,16.4,36.7,36.7,36.7c2.8,0,5.5-0.4,8.2-1L225.9,115C212.4,120.4,202.8,133.5,202.8,149z"/>
</g>
<g>
	<path class="st4" d="M346.4,304.8H242.2l11.3,66.3c41.5,8,44.7,94.2,44.7,94.2h77L346.4,304.8z"/>
</g>
<g>
	<path class="st2" d="M241.1,370.7c4.5-0.7,8.6-0.4,12.4,0.3l-11.3-66.3h-98.4l-21.6,160.5h74.2
		C196.4,465.2,187.7,379.3,241.1,370.7z"/>
</g>
</svg>
