<?xml version="1.0" encoding="utf-8"?>
<!-- Generator: Adobe Illustrator 19.2.1, SVG Export Plug-In . SVG Version: 6.00 Build 0)  -->
<svg version="1.1" id="图层_1" xmlns="http://www.w3.org/2000/svg" xmlns:xlink="http://www.w3.org/1999/xlink" x="0px" y="0px"
	 viewBox="0 0 147 500" style="enable-background:new 0 0 147 500;" xml:space="preserve">
<style type="text/css">
	.st0{fill:#1B96BB;}
	.st1{fill:#CC331C;}
	.st2{fill:#F299B8;}
	.st3{fill:#99C938;}
	.st4{fill:#D947A1;}
</style>
<g>
	<g>
		<polygon class="st0" points="45,5.8 144.8,31 45,55.2 		"/>
	</g>
	<g>
		<polygon class="st1" points="45,52.2 4.1,338.3 45,338.3 48.3,338.3 45.1,52.4 		"/>
	</g>
	<g>
		<polygon class="st2" points="45.1,52.4 48.3,338.3 86,338.3 		"/>
	</g>
	<g>
		<path class="st3" d="M45,338.3H4V497h12.9h11.7h0.1c0,0-8-32.6,15.7-34.4c2.2-0.2,4.1,0.1,5.7,0.5l-1.8-124.9L45,338.3L45,338.3z"
			/>
	</g>
	<g>
		<path class="st4" d="M48.4,338.3l1.8,124.9c14.8,4,8.1,30.2,7.1,33.9h5.2h11.4H86V338.3H48.4z"/>
	</g>
</g>
<g>
	<rect x="55.9" y="373.8" class="st3" width="19.2" height="16.9"/>
</g>
</svg>
