<?xml version="1.0" encoding="utf-8"?>
<!-- Generator: Adobe Illustrator 19.2.1, SVG Export Plug-In . SVG Version: 6.00 Build 0)  -->
<svg version="1.1" id="_x37C_" xmlns="http://www.w3.org/2000/svg" xmlns:xlink="http://www.w3.org/1999/xlink" x="0px" y="0px"
	 viewBox="0 0 200 54" style="enable-background:new 0 0 200 54;" xml:space="preserve">
<style type="text/css">
	.st0{fill:none;}
	.st1{fill-rule:evenodd;clip-rule:evenodd;fill:#92BF1E;}
	.st2{fill-rule:evenodd;clip-rule:evenodd;fill:#005245;}
	.st3{fill-rule:evenodd;clip-rule:evenodd;fill:#EB611D;}
	.st4{fill-rule:evenodd;clip-rule:evenodd;fill:#EDB618;}
	.st5{fill-rule:evenodd;clip-rule:evenodd;fill:#E71F19;}
	.st6{fill-rule:evenodd;clip-rule:evenodd;fill:#D41B19;}
	.st7{fill-rule:evenodd;clip-rule:evenodd;fill:#1EAEBE;}
	.st8{fill-rule:evenodd;clip-rule:evenodd;fill:#0E357D;}
	.st9{fill-rule:evenodd;clip-rule:evenodd;fill:#E894AF;}
	.st10{fill-rule:evenodd;clip-rule:evenodd;fill:#F5E14F;}
	.st11{fill-rule:evenodd;clip-rule:evenodd;fill:#EF7A15;}
	.st12{fill-rule:evenodd;clip-rule:evenodd;fill:#A81F7A;}
	.st13{fill-rule:evenodd;clip-rule:evenodd;fill:#C94895;}
	.st14{fill-rule:evenodd;clip-rule:evenodd;fill:#C04A96;}
	.st15{fill-rule:evenodd;clip-rule:evenodd;fill:#6A9E31;}
	.st16{fill-rule:evenodd;clip-rule:evenodd;fill:#1D913B;}
	.st17{fill-rule:evenodd;clip-rule:evenodd;fill:#67BCDE;}
	.st18{fill-rule:evenodd;clip-rule:evenodd;fill:#1590B0;}
	.st19{fill-rule:evenodd;clip-rule:evenodd;fill:#E71F15;}
	.st20{fill-rule:evenodd;clip-rule:evenodd;fill:#CB6BA7;}
	.st21{fill-rule:evenodd;clip-rule:evenodd;fill:#6BA630;}
	.st22{fill-rule:evenodd;clip-rule:evenodd;fill:#040000;}
</style>
<g>
	<path class="st0" d="M59.7,31.7v21.4h-9.3V44c1.1-0.2,2.3-0.4,3.6-0.4c0.5,0,0.9,0,1.4,0.1c-0.2-1.6-0.9-3.6-2.4-3.9l-0.5-11
		C55.2,28.8,57.8,29.9,59.7,31.7L59.7,31.7z"/>
	<path class="st0" d="M50.4,41V29c0.6-0.1,1.3-0.2,2-0.2l0,0l0.5,11c-0.2,0-0.3,0-0.5,0C51.5,39.8,50.8,40.3,50.4,41L50.4,41z"/>
	<path class="st0" d="M50.4,27.3v-2.2l0.6,0.1l1.3-2.7l1.5,2.8l2.5-0.8l0.3,3.2C54.2,27,52,27.1,50.4,27.3L50.4,27.3z"/>
	<path class="st0" d="M50.4,25.1v2.2c-1.4,0.2-2.3,0.5-2.3,0.5v-0.2v-3L50.4,25.1L50.4,25.1z"/>
	<path class="st0" d="M50.4,29v12c-0.6,0.9-0.9,2.2-1,3.2c0.3-0.1,0.6-0.2,1-0.2v9.1h-1.5H45V31.7C46.5,30.3,48.3,29.4,50.4,29
		L50.4,29z"/>
	<polygon class="st0" points="41.4,2.9 41.5,2.2 41.4,2.2 41.4,2.9 	"/>
	<path class="st0" d="M45,31.7v21.4h-3.3h-0.3V39.3c0.1,0,0.2,0.1,0.3,0.1C41.7,36.4,43,33.7,45,31.7L45,31.7z"/>
	<path class="st0" d="M39.3,10.7c0.5,0.1,1,0.2,1.5,0.3l0.6-8.2V2.2l-1.9,0l0.2,1.7v0.2l-0.4,0V10.7L39.3,10.7z"/>
	<path class="st0" d="M41.4,39.3v13.8h-2.1V28.3c0,0,0,0,0,0h1.6c-0.3,3.7-0.7,7.2-1.1,10.4C40.3,38.9,40.9,39.1,41.4,39.3
		L41.4,39.3z"/>
	<path class="st0" d="M39.3,27.8V13.5c0.9,0.2,1.5,0.3,1.5,0.3c0.8,2.1,0.7,6.3,0.4,11.4h-1.6c-0.1,0-0.2,0.1-0.2,0.2
		c0,0.1,0.1,0.2,0.2,0.2h1.6c0,0.7-0.1,1.5-0.2,2.2L39.3,27.8C39.3,27.8,39.3,27.8,39.3,27.8z"/>
	<path class="st0" d="M37,10.4c0.7,0.1,1.5,0.2,2.3,0.3V4.1L38,4V1.9h-1V10.4L37,10.4z"/>
	<path class="st0" d="M39.3,13.5v14.4c-0.1,0-0.2,0.1-0.2,0.2c0,0.1,0.1,0.2,0.2,0.2v24.8H37V23.6h1.2l0,0l0,0v-3l0,0H37v-7.3
		C37.9,13.3,38.7,13.4,39.3,13.5L39.3,13.5z"/>
	<path class="st0" d="M35.8,10.3c0.4,0,0.8,0.1,1.2,0.1V1.9h-1.1l0,2.1l-0.2,0V10.3L35.8,10.3z"/>
	<path class="st0" d="M37,13.1v7.3h-1.2l0,0v3l0,0H37v29.5h-1.2V13C36.2,13.1,36.6,13.1,37,13.1L37,13.1z"/>
	<path class="st0" d="M27.9,10.5c1.7-0.3,4.4-0.5,7.9-0.2V4.1l-1.5,0l0.2-2.7l-2.1,0l-0.1,2l-1.4,0.1l-0.2-2.5L29,1l-0.1,2h-1V10.5
		L27.9,10.5z"/>
	<path class="st0" d="M35.8,13v40.1h-7.9V34h0.8l0,0v-1.9h-0.8V13.2l0.1,0l0,0C30.7,12.8,33.5,12.8,35.8,13L35.8,13z"/>
	<path class="st0" d="M25.6,11c0,0,0.7-0.3,2-0.5c0.1,0,0.2,0,0.3,0V3h-0.2V0.9l-2,0.1l2,9.5l-2-9.5V11L25.6,11z"/>
	<path class="st0" d="M27.9,13.2v18.9h-0.8V34h0.8v19.1H25h-0.3V39.5c0.5-0.2,1.1-0.4,1.6-0.6c-1-9.3-1.4-14.1-1.4-18.2h1.4
		c0.1,0,0.2-0.1,0.2-0.2c0-0.1-0.1-0.2-0.2-0.2H25c0-1.7,0.1-3,0.2-4c0-0.5,0.1-1,0.2-1.3c0.2-0.9,0.5-1.2,0.5-1.2
		C26.2,13.6,27.5,13.3,27.9,13.2L27.9,13.2z"/>
	<path class="st0" d="M24.7,39.5v13.6h-3.9V41.7C22,40.9,23.3,40.1,24.7,39.5L24.7,39.5z"/>
	<polygon class="st0" points="20.9,37.2 20.9,33 24.3,34.7 20.9,33 20.9,31.7 24.3,34.7 21.4,37.9 20.9,37.2 	"/>
	<polygon class="st0" points="20.9,20.5 20.9,15.4 21.4,14.4 24.3,17.5 20.9,20.5 	"/>
	<polygon class="st0" points="20.9,15.4 20.9,15 21.4,14.4 	"/>
	<polygon class="st0" points="20.9,15 20.9,15.4 18.8,19.4 18.8,17.3 20.9,15 	"/>
	<polygon class="st0" points="20.9,15.4 20.9,20.5 18.8,22.3 18.8,19.4 20.9,15.4 	"/>
	<polygon class="st0" points="20.9,31.7 20.9,33 18.8,32 18.8,30 20.9,31.7 	"/>
	<path class="st0" d="M20.9,33v4.2l-1.6-1.8l0.7,7.1c0.3-0.3,0.6-0.5,0.9-0.8v11.4h-2.1V32L20.9,33L20.9,33z"/>
	<polygon class="st0" points="18.8,17.3 18.8,19.4 18.7,19.6 18.7,17.4 18.8,17.3 	"/>
	<polygon class="st0" points="18.8,19.4 18.8,22.3 18.7,22.3 18.7,19.6 18.8,19.4 	"/>
	<polygon class="st0" points="18.8,30 18.8,32 18.7,31.9 18.7,29.9 18.8,30 	"/>
	<polygon class="st0" points="18.8,32 18.8,53.1 18.7,53.1 18.7,31.9 18.8,32 	"/>
	<polygon class="st0" points="18.7,17.4 18.7,19.6 18.7,19.6 18.7,17.4 18.7,17.4 	"/>
	<polygon class="st0" points="18.7,19.6 18.7,22.3 18.7,22.3 18.7,19.6 18.7,19.6 	"/>
	<polygon class="st0" points="18.7,29.9 18.7,31.9 18.7,31.9 18.7,29.9 18.7,29.9 	"/>
	<polygon class="st0" points="18.7,31.9 18.7,53.1 18.7,53.1 18.7,31.9 18.7,31.9 	"/>
	<polygon class="st0" points="18.7,17.4 18.7,19.6 18.7,19.6 18.7,17.4 18.7,17.4 	"/>
	<polygon class="st0" points="18.7,19.6 18.7,22.3 18.7,22.3 18.7,19.6 18.7,19.6 	"/>
	<polygon class="st0" points="18.7,29.9 18.7,31.9 18.7,31.9 18.7,29.9 18.7,29.9 	"/>
	<polygon class="st0" points="18.7,31.9 18.7,53.1 18.7,53.1 18.7,31.9 18.7,31.9 	"/>
	<polygon class="st0" points="18.7,17.4 18.7,19.6 18.7,19.6 18.7,17.5 18.7,17.4 	"/>
	<polygon class="st0" points="18.7,19.6 18.7,22.3 18.7,22.4 18.7,19.6 18.7,19.6 	"/>
	<polygon class="st0" points="18.7,29.9 18.7,31.9 18.7,31.9 18.7,29.9 18.7,29.9 	"/>
	<polygon class="st0" points="18.7,31.9 18.7,53.1 18.7,53.1 18.7,31.9 18.7,31.9 	"/>
	<polygon class="st0" points="18.7,17.5 18.7,19.6 18.7,19.6 18.7,17.5 18.7,17.5 	"/>
	<polygon class="st0" points="18.7,19.6 18.7,22.4 18.7,22.4 18.7,19.6 18.7,19.6 	"/>
	<polygon class="st0" points="18.7,29.9 18.7,31.9 18.7,31.9 18.7,29.9 18.7,29.9 	"/>
	<polygon class="st0" points="18.7,31.9 18.7,53.1 18.7,53.1 18.7,31.9 18.7,31.9 	"/>
	<polygon class="st0" points="18.7,17.5 18.7,19.6 16.1,24.6 18.7,19.6 18.7,22.4 16.1,24.6 15.5,24 14,25.5 13.5,25.5 13.5,24.7 
		14.8,23.4 14.2,22.5 18.7,17.5 	"/>
	<polygon class="st0" points="18.7,29.9 18.7,31.9 16.9,31 16.9,31 18.7,31.9 18.7,53.1 17.9,53.1 13.5,53.1 13.5,39.4 14.2,39.4 
		14.6,39.4 14.6,37 14,37 13.7,34.1 13.7,34.1 14,37 13.5,37 13.5,32.7 13.7,34.1 13.5,32.7 13.5,26.4 13.7,26.7 14,26.7 15.5,28.2 
		16.1,27.7 18.7,29.9 	"/>
	<polygon class="st0" points="13.5,24.7 13.5,25.5 13.3,25.5 13.3,24.9 13.5,24.7 	"/>
	<polygon class="st0" points="13.5,26.4 13.5,32.7 13.3,31.4 13.3,26.2 13.5,26.4 	"/>
	<polygon class="st0" points="13.5,32.7 13.5,37 13.3,37 13.3,31.4 13.5,32.7 	"/>
	<polygon class="st0" points="13.5,39.4 13.5,53.1 13.3,53.1 13.3,39.4 13.5,39.4 	"/>
	<polygon class="st0" points="13.3,26.2 13.3,31.4 12.6,25.3 13.3,31.4 13.3,37 12.1,37 12.1,39.4 13.3,39.4 13.3,53.1 10.5,53.1 
		10.5,28.9 10.5,28.8 10.5,28.9 10.5,27.5 11.2,26.7 11.7,26.7 12.6,25.2 12.6,25.3 13.3,26.2 	"/>
	<polygon class="st0" points="10.5,24.7 10.5,23.4 11.9,24.9 11.9,25.5 11.2,25.5 10.5,24.7 	"/>
	<polygon class="st0" points="10.5,23.3 10.5,21.9 11,22.5 	"/>
	<polygon class="st0" points="10.5,21.9 10.5,23.3 10.4,23.4 10.5,23.4 10.5,24.7 9.7,24 9.7,24.1 9.7,21 10.5,21.9 	"/>
	<polygon class="st0" points="10.5,27.5 10.5,28.9 10.4,28.9 10.5,28.9 10.5,28.9 10.5,53.1 9.7,53.1 9.7,28.2 9.7,28.2 10.5,27.5 	
		"/>
	<polygon class="st0" points="9.7,21 9.7,24.1 9.1,24.6 0.9,17.5 3.8,14.4 3.8,14.4 9.7,21 	"/>
	<path class="st0" d="M9.7,28.2v24.9H0.6c-0.1-0.4-0.1-0.7-0.1-1.1c0-3.1,2.5-5.8,6.1-7.2l0.7-10.6v0h0l0.5-0.8l-4,4.5l-2.9-3.1
		l8.2-7L9.7,28.2L9.7,28.2z"/>
	<path class="st1" d="M25.6,11c0,0,0.7-0.3,2-0.5l-2-9.5V11z"/>
	<path class="st2" d="M39.5,2.2l0.2,1.7v0.2L38,4V1.9h-2.1l0,2.1l-1.7,0l0.2-2.7l-2.1,0l-0.1,2l-1.4,0.1l-0.2-2.5L29,1l-0.1,2h-1.2
		V0.9l-2,0.1l2,9.5c2.4-0.4,6.9-0.8,13.2,0.5l0.7-8.8L39.5,2.2z"/>
	<path class="st3" d="M39.5,25.1h1.6c0.3-5.1,0.4-9.3-0.4-11.4c0,0-6.5-1.6-12.7-0.6l3.4,32.3c0.4-0.3,0.8-0.5,1.3-0.5
		c3.4-0.3,3.3,3.8,3.3,5.7l1.9,0c0,0,2-10.6,3-22.3h-1.6c-0.1,0-0.2-0.1-0.2-0.2c0-0.1,0.1-0.2,0.2-0.2h1.6c0.1-0.7,0.1-1.5,0.2-2.2
		h-1.6c-0.1,0-0.2-0.1-0.2-0.2C39.3,25.3,39.4,25.1,39.5,25.1L39.5,25.1z M38.2,23.5L38.2,23.5L38.2,23.5l-2.4,0l0,0v-3l0,0h2.3l0,0
		V23.5z"/>
	<path class="st4" d="M31.4,45.5L28,13.2c0,0-1.8,0.3-2.1,0.5c0,0-0.3,0.3-0.5,1.2c-0.1,0.4-0.2,0.8-0.2,1.3c-0.1,1-0.2,2.2-0.2,4
		h1.4c0.1,0,0.2,0.1,0.2,0.2c0,0.1-0.1,0.2-0.2,0.2H25c0,5.6,0.6,12.2,2.7,29.9l1.9,0C29.5,49.5,29.3,47.3,31.4,45.5L31.4,45.5z
		 M28.7,34L28.7,34h-1.6v-1.9h1.6V34z"/>
	<path class="st1" d="M48.1,27.8c0,0,3.9-1.4,8.6,0l-0.3-3.2l-2.5,0.8l-1.5-2.8L51,25.2l-2.9-0.6v3V27.8z"/>
	<path class="st5" d="M52.4,28.8c-5.9,0-10.6,4.8-10.6,10.6c0,2.4,0.8,4.5,2.1,6.3h5.5c0,0-0.2-5.8,3-6c0.2,0,0.4,0,0.5,0L52.4,28.8
		L52.4,28.8z"/>
	<path class="st6" d="M52.4,28.8l0.5,11c2.7,0.5,2.6,5.9,2.6,5.9h-0.3v0l5.7,0c1.3-1.8,2.1-3.9,2.1-6.3C63,33.6,58.3,28.8,52.4,28.8
		z"/>
	<polygon class="st7" points="12.6,25.2 7.4,34.1 13.2,34.1 13.7,34.1 12.6,25.3 	"/>
	<polygon class="st8" points="12.6,25.3 13.7,34.1 19.2,34.1 	"/>
	<polygon class="st7" points="10.4,23.4 11,22.5 3.8,14.4 9.1,24.6 9.7,24 11.2,25.5 11.9,25.5 11.9,24.9 	"/>
	<polygon class="st1" points="0.9,17.5 9.1,24.6 3.8,14.4 	"/>
	<polygon class="st1" points="0.9,34.7 3.8,37.9 9.1,27.7 	"/>
	<polygon class="st8" points="11.9,26.7 11.2,26.7 9.7,28.2 9.1,27.7 3.8,37.9 11,29.7 10.4,28.9 11.9,27.3 	"/>
	<path class="st5" d="M20.5,48.2l-1.3-14.1h-5.5L14,37h0.6v2.4h-0.4l0.5,4.8c1.2,1.3,1.1,4,1.1,4H20.5z"/>
	<polygon class="st8" points="14.2,22.5 14.8,23.4 13.3,24.9 13.3,25.5 14,25.5 15.5,24 16.1,24.6 21.4,14.4 	"/>
	<polygon class="st1" points="21.4,14.4 16.1,24.6 24.3,17.5 	"/>
	<polygon class="st7" points="16.1,27.7 15.5,28.2 14,26.7 13.3,26.7 13.3,27.3 14.8,28.9 14.2,29.7 24.3,34.7 	"/>
	<polygon class="st1" points="14.2,29.7 21.4,37.9 24.3,34.7 	"/>
	<path class="st9" d="M14.2,39.4h-2.2V37H14l-0.3-2.9h-0.5H7.4L6.4,48.2H10c0,0,4.4-4.4,4.8-4L14.2,39.4z"/>
	<path class="st10" d="M33.4,37.9c-6.7,0-12.5,2.7-15.1,6.6c-1.6-0.5-3.5-0.9-5.4-0.9C6,43.6,0.5,47.4,0.5,52c0,0.4,0,0.7,0.1,1.1
		l47.9-8.6C45.9,40.6,40.1,37.9,33.4,37.9z"/>
	<path class="st4" d="M53.9,43.6c-1.9,0-3.8,0.3-5.4,0.9l0,0L0.6,53.1h17.3H25h16.7h7.2h17.3c0.1-0.4,0.1-0.7,0.1-1.1
		C66.3,47.4,60.8,43.6,53.9,43.6z"/>
	<path class="st4" d="M100.7,47.9c0-0.3,0-0.6,0-1.1v-2.5c0-0.2-0.1-0.4-0.1-0.4c-0.2-0.8-0.6-1.2-1.3-1.2c-0.5,0-1.2,0.4-2,1.2
		c-0.1-1.4-0.1-2.5-0.1-3.3l-0.1-0.2c-0.2,0-0.5,0-0.7,0c-0.5,0-0.8,0.1-1.1,0.3c0.2,0.4,0.3,1.4,0.3,3.1c0,2.9-0.1,4.9-0.4,6.2
		c-0.1,0.3-0.1,0.5-0.1,0.6l0,0.2c0.3,0.1,0.8,0.1,1.5,0.1c0.6,0,1,0,1.3-0.1l0-0.2l-0.3-1.4c-0.1-0.2-0.1-0.4-0.2-0.7
		c-0.1-0.6-0.2-1.3-0.2-2c0-1.5,0.2-2.3,0.5-2.3c0.3,0,0.5,0,0.7,0c0.2,0.2,0.4,0.4,0.4,0.8c0,0.2,0,0.5,0,0.9
		c0,1.5-0.1,2.7-0.3,3.5c-0.1,0.5-0.2,0.8-0.2,0.9c0,0.2,0.1,0.4,0.2,0.5l2.5-0.1c0-0.4-0.1-0.8-0.2-1.4
		C100.8,48.5,100.7,48.1,100.7,47.9z"/>
	<path class="st4" d="M106.1,43.1c-0.5-0.3-1-0.5-1.6-0.5c-1,0-1.7,0.5-2.2,1.6c-0.3,0.8-0.5,1.7-0.5,2.8c0,2.4,0.6,3.6,1.7,3.8
		c0.4,0.1,0.7,0.1,1.2,0.1c0.8,0,1.3-0.2,1.7-0.6c0.6-0.7,0.9-1.7,0.9-3.1C107.3,45,106.9,43.6,106.1,43.1L106.1,43.1z M104.6,49
		L104.6,49l-0.2,0c-0.4,0-0.7-0.3-0.8-0.9c-0.1-0.3-0.1-0.7-0.1-1.3c0-1.1,0-1.9,0.1-2.2c0.1-0.6,0.3-0.9,0.7-0.9
		c0.6,0,0.9,1.1,0.9,3.4C105.3,48,105.1,48.7,104.6,49z"/>
	<path class="st4" d="M113.4,45.9c0-1.1,0-1.7,0-1.7c-0.1-1-0.6-1.6-1.4-1.6c-0.5,0-0.9,0.1-1.2,0.4c-0.3,0.3-0.5,0.4-0.5,0.5
		c-0.1-0.2-0.2-0.4-0.2-0.6c-0.1-0.1-0.4-0.1-0.8-0.1c-0.2,0-0.5,0-0.9,0c0,3.2-0.2,5.9-0.4,8c0.2,0,0.5,0.1,1,0.1
		c0.7,0,1.2,0,1.7-0.1c-0.4-1.7-0.6-3-0.6-4c0-0.9,0-1.6,0.1-2.2c0.2-0.5,0.5-0.7,0.7-0.7c0.1,0,0.2,0,0.4,0.1
		c0.1,0.5,0.2,1.1,0.2,1.7c0,0.8-0.1,2-0.2,3.6c0,0.1-0.1,0.3-0.2,0.6c-0.1,0.3-0.1,0.5-0.1,0.6c0,0.2,0.1,0.3,0.2,0.4l1.7,0
		c0.4,0,0.6,0,0.7,0c0,0,0-0.2,0-0.4c0-0.5-0.1-1.2-0.2-2.2C113.5,47.1,113.4,46.4,113.4,45.9z"/>
	<path class="st4" d="M119.4,46.5c0.3-0.1,0.5-0.1,0.5-0.2c0.1-0.1,0.2-0.3,0.2-0.5c0-0.7-0.2-1.5-0.6-2.2c-0.2-0.3-0.4-0.6-0.8-0.7
		c-0.4-0.2-0.7-0.2-1.1-0.2c-0.5,0-0.9,0.1-1.4,0.2c-0.6,0.2-0.9,0.5-1.1,0.8c-0.3,0.7-0.5,1.7-0.5,3c0,0.1,0,0.3,0,0.4
		c0.1,1.3,0.3,2.2,0.6,2.7c0.4,0.6,1.3,1,2.9,1c0.8,0,1.3-0.1,1.6-0.4c0.2-0.1,0.3-0.3,0.4-0.6c0,0,0-0.2,0-0.5
		c0-0.5-0.1-0.8-0.2-0.9l-0.7,0.5c-0.2,0.2-0.5,0.2-0.8,0.2c-0.4,0-0.8-0.1-1.1-0.4c-0.3-0.3-0.6-0.6-0.7-1
		c-0.1-0.2-0.1-0.4-0.1-0.4l0,0L119.4,46.5L119.4,46.5z M116.3,46.3L116.3,46.3l0-1.5c0-0.7,0.2-1,0.7-1c0.1,0,0.2,0.1,0.4,0.3
		c0.3,0.3,0.5,0.9,0.5,1.8C117.3,46.1,116.8,46.2,116.3,46.3z"/>
	<path class="st4" d="M124.4,42.6c-0.5,0-0.9,0.3-1,0.9c0.6,0.6,0.9,1.5,0.9,2.7c0,0.1-0.1,0.5-0.2,1.2c-0.1,0.4-0.2,0.5-0.4,0.5
		l-0.1,0c-0.4-0.6-0.6-1.2-0.7-1.8l-0.6-3.3c-0.4-0.1-0.7-0.2-0.8-0.2c-0.3,0-0.4,0.1-0.5,0.4c0,0.1-0.1,0.4-0.1,0.8v0.1
		c0,1.9,0.4,3.7,1.1,5.3c0.2,0.5,0.4,0.8,0.4,0.8c0.2,0.2,0.2,0.4,0.2,0.5c0,0.5-0.5,0.7-1.5,0.7l0,0.3c0,0.2,0.1,0.5,0.3,0.8
		c0.4,0.2,0.8,0.3,1.3,0.3c0.2,0,0.4,0,0.5-0.1c0.5-0.2,0.9-0.6,1.1-1.2c0.9-2.1,1.4-4.2,1.4-6.3v-0.2c0-0.8,0-1.3-0.1-1.5
		C125.4,42.8,125.1,42.6,124.4,42.6z"/>
	<path class="st4" d="M133.7,45.6c-0.5-0.3-0.9-0.6-1.1-0.8c-0.1-0.3-0.2-0.4-0.2-0.6c0-0.1,0.1-0.2,0.2-0.3
		c0.1-0.1,0.3-0.2,0.5-0.2c0.4,0,0.6,0.1,0.7,0.4c0,0.1,0.1,0.2,0.1,0.4c0.1,0.3,0.3,0.5,0.5,0.5c0.5-0.2,0.8-0.3,0.8-0.3
		c0.2-0.1,0.2-0.3,0.2-0.5c0-0.2-0.1-0.5-0.3-0.7c-0.4-0.6-1-0.8-1.9-0.8c-1.2,0-2,0.4-2.4,1.2c-0.1,0.2-0.1,0.4-0.1,0.7
		c0,0.6,0.3,1.2,1,1.8c1.3,1,1.9,1.7,1.9,2.3c0,0.3-0.4,0.5-1.2,0.5c-0.6,0-1-0.2-1.3-0.5l-0.2,0c-0.1,0-0.3,0.1-0.5,0.3
		c0,0.1,0,0.3,0,0.4c0,0.3,0.1,0.6,0.2,1.1c0.5,0.4,1.1,0.7,2,0.7c0.8,0,1.5-0.1,2-0.4c0.6-0.4,1-0.9,1-1.7c0-0.9-0.2-1.6-0.6-2
		C134.9,46.3,134.4,46,133.7,45.6z"/>
	<path class="st4" d="M141.5,44.4c0.4-0.5,0.7-1,0.7-1.4c-0.4-0.2-0.8-0.3-1.3-0.3c-0.4,0-0.7,0.1-1.2,0.2c-0.1,0.2-0.1,0.4-0.1,0.6
		c0,0.6-0.1,0.9-0.1,1c-0.3,0.6-0.6,0.9-0.9,1l-0.1-4.8c-0.1-0.2-0.4-0.4-0.7-0.4h-1c-0.1,0.2-0.1,0.4-0.1,0.6c0,0.3,0,0.7,0.1,1.2
		c0,0.5,0.1,0.9,0.1,1.2c0,0.7-0.1,3.2-0.3,7.5c1,0,1.8,0,2.5,0c0.2,0,0.3-0.1,0.3-0.3c0-0.4-0.1-1-0.3-1.7
		c-0.2-0.8-0.3-1.3-0.3-1.7c0-0.4,0.1-0.7,0.3-0.7c0.2,0,0.3,0.1,0.4,0.3c0.5,1,0.8,2.2,0.8,3.6v0.3c0.5,0.1,0.9,0.1,1.3,0.1
		c0.5,0,0.9,0,1.2-0.1c-0.1-1.8-0.9-3.4-2.2-5L141.5,44.4z"/>
	<path class="st4" d="M146.8,42.6c-0.5,0-0.9,0.3-1,0.9c0.6,0.6,0.9,1.5,0.9,2.7c0,0.1-0.1,0.5-0.2,1.2c-0.1,0.4-0.2,0.5-0.4,0.5
		l-0.1,0c-0.4-0.6-0.6-1.2-0.7-1.8l-0.6-3.3c-0.4-0.1-0.7-0.2-0.8-0.2c-0.3,0-0.4,0.1-0.5,0.4c0,0.1-0.1,0.4-0.1,0.8v0.1
		c0,1.9,0.4,3.7,1.1,5.3c0.2,0.5,0.4,0.8,0.4,0.8c0.2,0.2,0.2,0.4,0.2,0.5c0,0.5-0.5,0.7-1.5,0.7l0,0.3c0,0.2,0.1,0.5,0.3,0.8
		c0.4,0.2,0.8,0.3,1.3,0.3c0.2,0,0.4,0,0.5-0.1c0.5-0.2,0.9-0.6,1.1-1.2c0.9-2.1,1.4-4.2,1.4-6.3v-0.2c0-0.8,0-1.3-0.1-1.5
		C147.8,42.8,147.4,42.6,146.8,42.6z"/>
	<path class="st4" d="M155.2,42.7c-0.3-0.1-0.4-0.2-0.4-0.4l0-0.2l0.2,0c0.2,0,0.4,0.1,0.7,0.2c0.1-0.6,0.2-1.1,0.2-1.5
		c-0.1-0.2-0.7-0.4-1.6-0.4c-0.1,0-0.2,0-0.3,0c-0.5,0.2-0.8,0.5-0.8,0.9c0,0.1,0,0.2,0,0.4c0,0.2,0,0.3,0,0.4
		c0,0.4-0.1,0.6-0.3,0.7c-0.2,0.4-0.2,0.7-0.2,0.9c0.1,0.2,0.3,0.3,0.4,0.3c0.2,0.1,0.3,0.2,0.3,0.4c0,1.9-0.1,3.5-0.4,5l-0.2,1
		c0,0.1,0,0.2,0.1,0.4l2,0c0.1,0,0.3,0,0.5-0.1c0.2-0.1,0.3-0.1,0.3-0.2c-0.4-1.1-0.6-3.3-0.6-6.4c0.2-0.1,0.3-0.1,0.6-0.1
		c0.2-0.2,0.2-0.4,0.2-0.6c0-0.1,0-0.3,0-0.4C155.9,42.9,155.6,42.8,155.2,42.7z"/>
	<path class="st4" d="M162.3,49.8l-0.1-3.7c0-0.9-0.1-1.5-0.2-1.8c-0.2-0.6-0.5-1.1-1.1-1.4c-0.5-0.2-0.9-0.4-1.4-0.4
		c-0.9,0-1.6,0.2-2,0.6c-0.2,0.2-0.3,0.5-0.3,0.9c0,0.5,0.2,0.7,0.7,0.7c0.2,0,0.4-0.2,0.6-0.6c0.2-0.4,0.5-0.6,0.7-0.6
		c0.5,0,0.8,0.1,0.8,0.4l0,0.1c-1.5,1-2.5,1.9-2.8,2.6l-0.3,0.6v0.5c0,1.5,0.4,2.4,1.1,2.7l4.2,0c0.1,0,0.2-0.1,0.2-0.4
		c0,0,0-0.1,0-0.3C162.3,50,162.3,49.9,162.3,49.8L162.3,49.8z M160.2,48.8L160.2,48.8c-0.1,0.2-0.2,0.3-0.4,0.3
		c-0.2,0-0.4,0-0.5-0.1c-0.3-0.2-0.4-0.6-0.4-1.2c0-0.3,0.2-0.8,0.5-1.4c0.2-0.4,0.5-0.7,0.8-0.9l0.2,0.1c0,0.1,0,0.4,0,0.9
		C160.4,47.6,160.3,48.4,160.2,48.8z"/>
	<path class="st4" d="M167,42.5c-0.6,0-1.1,0.3-1.6,0.8l-0.2-0.6c-0.1-0.1-0.4-0.1-0.8-0.1l-0.8,0.1l0.1,3.8c0,0.8,0,1.4,0,1.6
		c-0.3,1.2-0.4,2-0.4,2.2l0,0.5h2.7l-0.1-0.7c0-0.2-0.1-0.3-0.1-0.3c-0.3-0.8-0.4-1.9-0.4-3.4c0-0.9,0-1.3,0-1.4
		c0.1-0.7,0.3-1.1,0.6-1.1c0.3,0,0.5,0.2,0.5,0.5v0.8c0,0,0,0.1-0.1,0.2c0,0.1-0.1,0.2-0.1,0.2c0,0.2,0,0.3,0.1,0.3
		c0.6,0,1.1-0.2,1.5-0.6c0.1-0.5,0.1-0.8,0.1-1c0-0.5-0.1-0.9-0.3-1.3C167.6,42.7,167.4,42.5,167,42.5z"/>
	<path class="st4" d="M177.3,48.7c-0.1-0.8-0.1-1.9-0.1-3.1v-1.3c0-0.9-0.3-1.4-0.9-1.7c-0.1-0.1-0.3-0.1-0.4-0.1
		c-0.3,0-0.6,0.1-1,0.4l-0.9,0.6c-0.3-0.6-0.8-0.9-1.5-0.9c-0.2,0-0.9,0.3-1.9,0.9c0-0.1,0-0.3,0-0.4c0-0.3,0-0.5-0.1-0.5
		c-0.2,0-0.4,0-0.7,0.1c-0.3,0.1-0.6,0.1-0.8,0.1l0,2.4c0,1.8-0.1,3.4-0.4,4.9c0,0.2,0,0.3,0,0.5l0.1,0.2l0.2,0.1c0.5,0,0.9,0,1.2,0
		c0.3,0,0.7-0.1,1-0.1c0-0.3-0.1-1.2-0.3-2.8c-0.1-0.7-0.1-1.4-0.1-2c0-0.9,0.2-1.5,0.6-1.9c0.1-0.1,0.2-0.2,0.3-0.2
		c0.4,0,0.6,0.6,0.6,1.8c0,0.1-0.1,0.7-0.2,1.7l-0.2,2.2c0,0,0,0.1-0.1,0.3c0,0.2-0.1,0.3-0.1,0.3c0,0.2,0,0.4,0.1,0.5h2.5l0-0.1
		c-0.3-2.2-0.4-3.9-0.4-5c0-0.8,0.2-1.3,0.6-1.6c0.1,0,0.2-0.1,0.3-0.1c0.2,0,0.4,0.1,0.6,0.4c0.1,0.4,0.1,0.7,0.1,1
		c0,1.2-0.1,2.2-0.2,3.1c-0.2,1.3-0.3,2-0.3,2.2c0.3,0,0.8,0.1,1.5,0.1c0.5,0,0.9,0,1.1-0.1c0-0.1,0-0.3,0-0.4c0-0.2,0-0.4-0.1-0.7
		C177.4,49.2,177.3,48.9,177.3,48.7z"/>
	<polygon class="st11" points="164,25.1 160.9,28.1 161.1,32.1 164.3,31.4 	"/>
	<polygon class="st4" points="167.2,34 166.7,30.8 164.3,31.4 164.3,31.4 161.1,32.1 161.2,34 	"/>
	<path class="st7" d="M123,29.4c3,3.7,6.7,4.5,6.7,4.5l1.4-2.9c-5.4-1.5-7-4.3-7-4.3L123,29.4z"/>
	<polygon class="st12" points="143.6,14.1 146.8,14 146.5,17.6 143.6,17.6 	"/>
	<path class="st13" d="M141.4,21.6c0,0-0.8,1.6-3.9,2.1l1.4,2.6c0,0,2.8-1,4-2.6L141.4,21.6z"/>
	<polygon class="st13" points="145,20.2 148,20.2 148,22.8 150.1,22.6 150.1,25.1 145.3,25.1 	"/>
	<rect x="143.5" y="27.5" class="st12" width="2.9" height="4.2"/>
	<path class="st14" d="M138.3,30.8l0.4,3l13.3-0.3v-2.7C152,30.8,142.6,31.3,138.3,30.8z"/>
	<path class="st1" d="M94.1,18.8l1.7-2.6c0,0,2.1,1.3,2.9,2.2L98,20.7L94.1,18.8z"/>
	<path class="st15" d="M93.9,22.7c0,0,2.3,0.5,3.5,1.3l-0.8,2c0,0-2.7-0.9-3.4-0.8L93.9,22.7z"/>
	<path class="st16" d="M97.1,27.2c0,0-0.9,3.4-4.3,4.7l2.2,2.7c0,0,3.9-2.6,4.3-6.2C99.2,28.3,97.9,27.4,97.1,27.2z"/>
	<path class="st17" d="M131.4,16.5h-15.9v3c0,0,2.1-0.9,15.9,0V16.5z"/>
	<rect x="117.2" y="22.4" class="st18" width="13.6" height="3"/>
	<path class="st18" d="M123.4,20c0,0,0.4,9.5-6.2,11.6l2.5,2.6c0,0,6-3.2,6.6-13.7L123.4,20z"/>
	<polygon class="st19" points="172.6,25.4 170.8,27.7 172.2,29.9 174.7,27.1 	"/>
	<path class="st4" d="M169.2,24.2l-2.8,1.7c2.8,5.5,7,7.6,7,7.6l2.1-2.2C172.6,30,170.2,26,169.2,24.2z"/>
	<path class="st19" d="M165.2,14.7c-0.1,3-0.9,10.3-8.9,13.3l1.9,2.9c0,0,9.7-3.8,10.4-16.2H165.2z"/>
	<path class="st20" d="M189.7,24.9c0,0-0.6,2-2.4,3.2l1.5,1.6c0,0,2.1-1.1,2.6-3.6L189.7,24.9z"/>
	<polygon class="st20" points="184,17.2 181,17.5 181.2,29 183.8,28.6 	"/>
	<path class="st4" d="M82.6,21.9v2.7h5.8l-0.2-2.9C88.2,21.7,85.5,22.3,82.6,21.9z"/>
	<polygon class="st9" points="141.1,26.3 149.4,26.3 149.1,28.8 141.1,28.8 	"/>
	<polygon class="st9" points="178.7,20.6 178.8,23.3 186,23 186,20.3 	"/>
	<path class="st13" d="M178.3,28.6c0,0,3.8,0,7.2-2l1.1,2.5c0,0-3.3,1.9-7.6,2.2L178.3,28.6z"/>
	<polygon class="st9" points="189.7,15.6 196.8,15.7 196.8,18.4 189.7,18.5 	"/>
	<polygon class="st20" points="196.8,18.4 194,18.2 193.8,18.2 191.7,20.9 195,21.4 	"/>
	<path class="st14" d="M134.8,16.5c0,0,0.5,3,0.3,6.6l3.6-0.3l-0.4-3.4h0l-0.3-2.8H134.8z"/>
	<polygon class="st9" points="153.7,16.5 137.9,16.5 138.3,19.3 150.3,19.2 153.7,19.2 	"/>
	<polygon class="st9" points="150.3,19.2 150.3,22 153.7,22.3 153.7,19.2 	"/>
	<path class="st3" d="M157.3,23.8l3.5-0.3l-0.4-3.3h-3.1C157.4,21.2,157.4,22.4,157.3,23.8z"/>
	<path class="st4" d="M157.1,17.4c0,0,0.2,1.1,0.3,2.7h3.1l11.6-0.1v-2.7H157.1z"/>
	<polygon class="st11" points="172,17.4 172,20.1 172,22.8 175.3,23 175.3,17.4 	"/>
	<path class="st12" d="M189.3,31.7l3,1.2c0,0,2.3-3.4,2.5-8.9l0.1,0c-1.1-0.1-1.9-0.2-2.6-0.3C192.3,24.4,192.3,28.4,189.3,31.7z"/>
	<path class="st14" d="M199.4,22.2l-4.4-0.7l-3.3-0.6l-1.8,2.2c0,0,0.7,0.3,2.4,0.6c0.7,0.1,1.6,0.2,2.6,0.3l1.4,0.1
		c0.9,0.1,2,0.1,3.2,0.1C199.5,23.5,199.4,22.9,199.4,22.2z"/>
	<path class="st20" d="M199.5,24.2c-1.2,0-2.3,0-3.2-0.1l0.1,0c0,0,0.1,6.4-2.3,9.5l3.5,1.1C197.6,34.6,199.7,31,199.5,24.2z"/>
	<path class="st16" d="M104.6,21c0-0.2,0-0.5,0-0.7L104.6,21L104.6,21z"/>
	<path class="st16" d="M104.4,25.2c-0.3,2.6-0.8,4.5-1.1,5.8C103.7,29.6,104.2,27.6,104.4,25.2z"/>
	<path class="st16" d="M104.3,16.7c0,0.3,0,0.5,0.1,0.8C104.4,17.2,104.3,16.9,104.3,16.7z"/>
	<path class="st16" d="M104.6,21c0,0.1,0,0.2,0,0.3C104.6,21.3,104.6,21.2,104.6,21z"/>
	<path class="st16" d="M104.6,21v-0.7c0-0.3,0-0.5,0-0.8c0-0.7-0.1-1.4-0.2-2.1c0-0.3,0-0.5-0.1-0.8c-1.3,0.1-2.5,0.1-3.3,0
		c0,0,1.9,11.4-1.8,16l3,1.3c0,0,0.6-1,1.2-2.9c0.4-1.4,0.8-3.2,1.1-5.8c0-0.5,0.1-0.9,0.1-1.4c0-0.8,0.1-1.5,0.1-2.4
		C104.6,21.3,104.6,21.2,104.6,21L104.6,21z"/>
	<path class="st1" d="M104.6,21.1c0,0.1,0,0.2,0,0.3c0,0.8,0,1.6-0.1,2.4c0.6-0.1,4.1-0.6,7.6-0.1v-2.2L104.6,21.1z"/>
	<path class="st1" d="M104.3,16.7c0,0.2,0.1,0.5,0.1,0.8c0.1,0.7,0.1,1.4,0.2,2.1l4.6-0.5v-2.8C107.7,16.4,105.9,16.6,104.3,16.7z"
		/>
	<path class="st21" d="M109.2,16.3V19v2v0.2l-4.6-0.2v0l7.6,0.3v-5.5C112.2,15.9,110.9,16.1,109.2,16.3z"/>
	<path class="st16" d="M112.9,28.7l-1-2.3l-3.2,1.5l0,2.2C111.1,29.6,112.9,28.7,112.9,28.7z"/>
	<polygon class="st15" points="108.7,30.1 108.6,27.9 108.6,25.7 105.7,25.9 105.7,32.3 108.7,32.1 	"/>
	<polygon class="st1" points="113,34.3 112.8,31.7 108.7,32.1 108.7,32.1 105.7,32.3 105.7,34.3 	"/>
	<polygon class="st3" points="75.5,23.1 75.5,26.1 78.2,25.9 78,19.8 75.6,19.9 75.5,23.1 	"/>
	<polygon class="st11" points="78.2,25.9 75.5,26.1 75.5,26.1 75.5,26.1 74,26.3 74,26.3 74,26.3 71.1,26.6 71.2,29.7 74,29.6 
		75.5,29.6 78.3,29.5 	"/>
	<polygon class="st4" points="74,23.1 71,23.1 71.1,26.6 74,26.3 74,25 	"/>
	<polygon class="st4" points="74,23.1 74,23.1 74,25 	"/>
	<polygon class="st19" points="74,19.9 70.8,20.1 71,23.1 74,23.1 74,23.1 75.5,23.1 75.6,19.9 	"/>
	<path class="st4" d="M84.6,17.1c-0.2-0.3-0.5-0.7-0.7-1c-1.2,1-2.9,2.4-5.1,3.4l1.5,2.7c1.9-1.2,3.3-2.2,5-4.2
		c-0.2-0.3-0.4-0.5-0.7-0.8L84.6,17.1z"/>
	<path class="st22" d="M85.3,18.1c-0.2-0.3-0.4-0.5-0.6-0.8C84.9,17.5,85.1,17.8,85.3,18.1z"/>
	<path class="st3" d="M85.5,14.6c0,0-0.6,0.6-1.6,1.5l0,0c0.2,0.3,0.4,0.7,0.7,1l0.1,0.1c0.2,0.3,0.4,0.6,0.7,0.8
		c2.6,3.1,5.3,4.2,5.3,4.2l1.3-2.8C89.9,18.4,88.4,17.8,85.5,14.6z"/>
	<polygon class="st3" points="90.1,26.4 87.5,26.4 87.2,29.1 87.2,29.1 87,31.1 86.7,33.9 90.1,33.9 	"/>
	<polygon class="st19" points="87.5,26.4 80.5,26.4 80.6,29.1 83.7,29.1 87.2,29.1 	"/>
	<polygon class="st4" points="83.7,29.1 80.6,29.1 80.6,30.9 83.7,31 	"/>
	<polygon class="st11" points="83.7,31 83.7,31 80.6,30.9 80.8,33.9 86.7,33.9 87,31.1 	"/>
</g>
</svg>
