<?xml version="1.0" encoding="utf-8"?>
<!-- Generator: Adobe Illustrator 19.2.1, SVG Export Plug-In . SVG Version: 6.00 Build 0)  -->
<svg version="1.1" id="图层_1" xmlns="http://www.w3.org/2000/svg" xmlns:xlink="http://www.w3.org/1999/xlink" x="0px" y="0px"
	 viewBox="0 0 200 200" style="enable-background:new 0 0 200 200;" xml:space="preserve">
<style type="text/css">
	.st0{fill:#C93927;}
	.st1{fill:#FFFFFF;}
</style>
<circle class="st0" cx="100" cy="100.3" r="87.2"/>
<path class="st1" d="M139,125.3c-7.2,15.2-30.7,22.6-48.2,21.2c-16.6-1.3-38-6.8-40.2-26.9c0,0-1.2-9.1,7.7-20.9
	c0,0,12.7-17.7,27.5-22.8c14.8-5,16.5,3.5,16.5,8.5c-0.8,4.3-2.3,6.8,3.3,5.1c0,0,14.5-6.7,20.5-0.8c4.8,4.8,0.8,11.5,0.8,11.5
	s-2,2.2,2.1,3C133.2,104,146.1,110,139,125.3z"/>
<path class="st1" d="M124.7,83.3c-1.6,0-2.9-1.3-2.9-2.9c0-1.6,1.3-2.9,2.9-2.9c0,0,17.8-3.3,15.7,15.9c0,0.1,0,0.2,0,0.3
	c-0.2,1.4-1.4,2.4-2.8,2.4c-1.6,0-2.9-1.3-2.9-2.9C134.6,93.3,137.5,80.5,124.7,83.3z"/>
<path class="st1" d="M154.8,98.6L154.8,98.6c-0.5,3.2-2.1,3.5-4,3.5c-2.3,0-4.1-1.4-4.1-3.7c0-2,0.8-4,0.8-4c0.2-0.8,2.2-6-1.3-13.8
	c-6.3-10.6-19.1-10.8-20.6-10.2c-1.5,0.6-3.8,0.9-3.8,0.9c-2.3,0-4.2-1.9-4.2-4.2c0-1.9,1.3-3.5,3-4c0,0,0-0.1,0.1-0.1
	c0.1,0,0.3-0.2,0.4-0.2c1.8-0.3,8.1-1.6,14.3-0.1C146.5,65.3,161.6,75.9,154.8,98.6z"/>
<path class="st0" d="M92.1,99.7c-17.3,0.8-31.4,10.1-31.4,21.7c0,11.6,14,20.3,31.4,19.5c17.4-0.8,31.4-11.7,31.4-23.2
	C123.5,106,109.4,98.9,92.1,99.7z"/>
<path class="st1" d="M103.9,128.8c-5.3,6.9-15.8,10.2-26,4.7c-4.9-2.6-4.7-7.8-4.7-7.8s-2-16.3,15.4-18.4
	C106.1,105.3,109.2,122,103.9,128.8z"/>
<path class="st0" d="M83.9,120.1c-3.3,0.3-5.6,3.2-5.6,5.9c0,2.7,2.6,4.6,5.9,4.2c3.2-0.4,5.9-2.9,5.9-5.6
	C90.1,121.9,87.7,119.8,83.9,120.1z"/>
<path class="st0" d="M92.2,117.9c-1.1,0.8-1.3,2.4-0.7,3.3c0.6,1,1.9,1.1,3,0.3c1.1-0.9,1.5-2.3,0.9-3.3
	C94.8,117.2,93.5,116.9,92.2,117.9z"/>
</svg>
