<?xml version="1.0" encoding="utf-8"?>
<!-- Generator: Adobe Illustrator 19.2.1, SVG Export Plug-In . SVG Version: 6.00 Build 0)  -->
<svg version="1.1" id="图层_1" xmlns="http://www.w3.org/2000/svg" xmlns:xlink="http://www.w3.org/1999/xlink" x="0px" y="0px"
	 viewBox="0 0 200 200" style="enable-background:new 0 0 200 200;" xml:space="preserve">
<style type="text/css">
	.st0{fill:#36AB60;}
	.st1{fill:#FFFFFF;}
</style>
<circle class="st0" cx="100" cy="99.8" r="87"/>
<path class="st1" d="M142.6,135.8l2.8,10.2l-10.8-6.1c-4.1,0.9-8.1,2.1-12.2,2.1c-19,0-34-13-34-29.2s15-29.2,34-29.2
	c18,0,34.2,13,34.2,29.2C156.7,121.9,150.6,130,142.6,135.8z"/>
<path class="st0" d="M111.5,99.8c-2,0-4,1.8-4,4.1c0,1.8,2,3.7,4,3.7c3,0,5.1-1.8,5.1-3.7C116.6,101.6,114.4,99.8,111.5,99.8z"/>
<path class="st1" d="M83.5,121.9c-5.2,0-9.1-0.9-14-2.3l-14.3,7.2l4.1-12.2c-10.1-7.1-16-16-16-26.9c0-19.3,18.1-34,40.3-34
	c19.6,0,37,11.6,40.4,28.1c-1.4-0.3-2.7-0.4-3.8-0.4c-19.3,0-34.2,14.5-34.2,31.9c0,3,0.4,5.7,1.1,8.5
	C85.9,121.9,84.7,121.9,83.5,121.9z"/>
<path class="st0" d="M98.4,80.6c3.1,0,5.1-2,5.1-5c0-3.1-2-5-5.1-5c-3,0-5.8,1.8-5.8,5C92.6,78.6,95.4,80.6,98.4,80.6z"/>
<path class="st0" d="M70.3,70.7c-3,0-6.1,1.8-6.1,5c0,3,3.1,5,6.1,5c2.8,0,5.1-2,5.1-5C75.4,72.5,73.2,70.7,70.3,70.7z"/>
<path class="st0" d="M133.7,99.8c-2.1,0-4,1.8-4,4.1c0,1.8,1.8,3.7,4,3.7c2.8,0,5-1.8,5-3.7C138.7,101.6,136.5,99.8,133.7,99.8z"/>
</svg>
