<?xml version="1.0" encoding="utf-8"?>
<!-- Generator: Adobe Illustrator 19.2.1, SVG Export Plug-In . SVG Version: 6.00 Build 0)  -->
<svg version="1.1" id="Layer_3" xmlns="http://www.w3.org/2000/svg" xmlns:xlink="http://www.w3.org/1999/xlink" x="0px" y="0px"
	 viewBox="0 0 180 180" style="enable-background:new 0 0 180 180;" xml:space="preserve">
<style type="text/css">
	.st0{fill:#FFFFFF;}
	.st1{fill:#D9D8D7;}
	.st2{fill:#FF99A6;}
	.st3{fill:#F7819A;}
	.st4{fill:#F05D70;}
</style>
<g>
	<circle class="st0" cx="90" cy="90" r="90"/>
	<g>
		<path class="st1" d="M140.6,49.1h-23.2c-2.9,0-5.3-2.4-5.3-5.3c0-3,2.4-5.3,5.3-5.3c3,0,5.4-2.4,5.4-5.3c0-3-2.4-5.3-5.4-5.3H44.4
			c-2.9,0-5.3,2.4-5.3,5.3c0,3,2.4,5.3,5.3,5.3H69c3,0,5.3,2.4,5.3,5.3c0,3-2.4,5.3-5.3,5.3c-3,0-5.3,2.4-5.3,5.3
			c0,3,2.4,5.3,5.3,5.3h3.9c3,0,5.3,2.4,5.3,5.3c0,3-2.4,5.3-5.3,5.3H58c-3,0-5.4,2.4-5.4,5.3c0,3,2.4,5.3,5.4,5.3h6.4
			c3,0,5.4,2.4,5.4,5.3h10.7c0-3,2.4-5.3,5.4-5.3h15.3c3,0,5.3-2.4,5.3-5.3c0-3-2.4-5.3-5.3-5.3H97c-3,0-5.3-2.4-5.3-5.3
			c0-3,2.4-5.3,5.3-5.3h43.6c2.9,0,5.3-2.4,5.3-5.3C146,51.5,143.6,49.1,140.6,49.1z"/>
		<circle class="st1" cx="38.2" cy="75.8" r="5.3"/>
		<ellipse class="st1" cx="131.6" cy="33.1" rx="5.3" ry="5.3"/>
	</g>
	<rect x="49.6" y="86.5" class="st2" width="50.9" height="66.2"/>
	<rect x="75.1" y="86.5" class="st3" width="25.5" height="66.2"/>
	<rect x="87.8" y="86.5" class="st4" width="12.7" height="66.2"/>
	<path class="st4" d="M106.7,138.2h-6.1v-5.6h6.1c1.3,0,2.5-0.5,3.4-1.4c0.9-0.9,1.4-2.1,1.4-3.4v-16.3c0-1.3-0.5-2.5-1.4-3.4
		c-0.9-0.9-2.1-1.4-3.4-1.4h-6.1V101h6.1c2.8,0,5.4,1.1,7.4,3.1c2,2,3.1,4.6,3.1,7.4v16.3c0,2.8-1.1,5.4-3.1,7.4
		C112.1,137.1,109.4,138.2,106.7,138.2z"/>
	<rect x="87.2" y="86.5" class="st0" width="1.3" height="20.5"/>
	<rect x="81.6" y="107" class="st1" width="12.4" height="16.1"/>
</g>
</svg>
