<?xml version="1.0" encoding="utf-8"?>
<!-- Generator: Adobe Illustrator 19.2.1, SVG Export Plug-In . SVG Version: 6.00 Build 0)  -->
<svg version="1.1" id="Layer_3" xmlns="http://www.w3.org/2000/svg" xmlns:xlink="http://www.w3.org/1999/xlink" x="0px" y="0px"
	 viewBox="0 0 180 180" style="enable-background:new 0 0 180 180;" xml:space="preserve">
<style type="text/css">
	.st0{fill:#FFFFFF;}
	.st1{fill:#F05D70;}
	.st2{fill:#FF99A6;}
	.st3{fill:#E5E5E5;}
	.st4{fill:#CCCBCA;}
</style>
<circle class="st0" cx="90" cy="90" r="90"/>
<rect x="40.5" y="56.7" transform="matrix(0.6226 -0.7826 0.7826 0.6226 -31.3848 75.9624)" class="st1" width="45.2" height="27.6"/>
<path class="st2" d="M85.3,69.9c0.4,0.3,0.7,0.8,0.8,1.4c0.1,0.6-0.1,1.1-0.4,1.6L70.2,92.3c-0.3,0.4-0.9,0.7-1.4,0.8
	c-0.6,0.1-1.1-0.1-1.6-0.5L40.6,71.5c-0.4-0.3-0.7-0.9-0.8-1.4c-0.1-0.6,0.1-1.1,0.5-1.6L55.7,49c0.3-0.4,0.8-0.7,1.4-0.8
	c0.6-0.1,1.1,0.1,1.6,0.5L85.3,69.9z"/>
<rect x="52.3" y="51.7" transform="matrix(0.6226 -0.7826 0.7826 0.6226 -31.7116 75.8933)" class="st3" width="21.1" height="38.3"/>
<rect x="58.5" y="67.8" transform="matrix(0.6226 -0.7826 0.7826 0.6226 -33.2332 82.6133)" class="st4" width="21.1" height="15.9"/>
<path class="st2" d="M34.2,78.5c-1.5,0.2-2.7,0.9-3.6,2c-0.9,1.1-1.3,2.5-1.1,4c0.2,1.5,0.9,2.7,2,3.6l21.6,17.2
	c1.1,0.9,2.5,1.3,3.9,1.1c1.5-0.2,2.7-0.9,3.6-2c0.8-1.1,1.3-2.5,1.1-3.9c-0.2-1.5-0.9-2.7-2-3.6L38.2,79.6
	C37.1,78.8,35.7,78.3,34.2,78.5z"/>
<path class="st2" d="M69.1,34.7c-1.5,0.2-2.7,0.9-3.6,2c-0.9,1.1-1.3,2.5-1.1,3.9c0.2,1.5,0.9,2.7,2,3.6l21.6,17.2
	c1.1,0.9,2.5,1.3,3.9,1.1c1.5-0.2,2.7-0.9,3.6-2c0.9-1.1,1.3-2.5,1.1-4c-0.2-1.5-0.9-2.7-2-3.6L73,35.9C71.9,35,70.5,34.6,69.1,34.7
	z"/>
<path class="st2" d="M92.3,103l40.4,32.1c1.4,1.1,3.2,1.7,5.1,1.5c1.9-0.2,3.6-1.2,4.7-2.6c1.1-1.4,1.7-3.2,1.5-5.2
	c-0.2-1.9-1.2-3.6-2.6-4.7L101,92L92.3,103z"/>
<rect x="82.9" y="78.1" transform="matrix(0.6226 -0.7826 0.7826 0.6226 -37.5145 102.3069)" class="st1" width="8.7" height="23.9"/>
</svg>
