<?xml version="1.0" encoding="utf-8"?>
<!-- Generator: Adobe Illustrator 19.2.1, SVG Export Plug-In . SVG Version: 6.00 Build 0)  -->
<svg version="1.1" id="Layer_3" xmlns="http://www.w3.org/2000/svg" xmlns:xlink="http://www.w3.org/1999/xlink" x="0px" y="0px"
	 viewBox="0 0 180 180" style="enable-background:new 0 0 180 180;" xml:space="preserve">
<style type="text/css">
	.st0{fill:#FFFFFF;}
	.st1{fill:#E6E5E5;}
	.st2{fill:#D9D8D7;}
	.st3{fill:#F05D70;}
	.st4{fill:#C7DEF2;}
	.st5{fill:#C8D8A0;}
</style>
<circle class="st0" cx="90" cy="90" r="90"/>
<g>
	<polygon class="st1" points="104.8,138.5 75.2,138.5 79,120.2 101,120.2 	"/>
	<polygon class="st2" points="104.8,138.5 101,120.2 79,120.2 97.2,138.5 	"/>
	<path class="st2" d="M112.7,140.7H67.3v-0.8c0-0.4,0.1-0.7,0.4-1c0.3-0.3,0.7-0.4,1-0.4h42.5c0.4,0,0.7,0.1,1,0.4
		c0.3,0.3,0.4,0.7,0.4,1V140.7z"/>
	<path class="st3" d="M36.1,45c-1.5,0-2.8,1.2-2.8,2.8v69.6c0,1.5,1.2,2.8,2.8,2.8h107.9c1.5,0,2.8-1.2,2.8-2.8V47.8
		c0-1.5-1.2-2.8-2.8-2.8H36.1z"/>
	<rect x="39" y="50.8" class="st0" width="101.9" height="63.7"/>
	<g>
		<g>
			<rect x="47.6" y="100.4" class="st1" width="37.3" height="1.7"/>
			<rect x="47.6" y="103.7" class="st1" width="37.3" height="1.7"/>
			<rect x="47.6" y="107" class="st1" width="18.6" height="1.7"/>
		</g>
	</g>
	<path class="st1" d="M74.9,71.5c0,2.4-1,4.6-2.5,6.2l4.4,4.4c2.7-2.7,4.4-6.4,4.4-10.5H74.9z"/>
	<path class="st3" d="M72.4,77.7c-1.6,1.6-3.7,2.5-6.1,2.5c-4.8,0-8.7-3.9-8.7-8.7c0-3.6,2.2-6.7,5.4-8l-2.4-5.7
		c-5.4,2.2-9.2,7.6-9.2,13.8c0,8.2,6.7,14.9,14.9,14.9c4.1,0,7.8-1.7,10.5-4.4L72.4,77.7z"/>
	<path class="st4" d="M66.2,62.8v-6.2c-2,0-3.9,0.4-5.7,1.1l2.4,5.7C63.9,63.1,65,62.8,66.2,62.8z"/>
	<path class="st5" d="M66.2,62.8c4.8,0,8.7,3.9,8.7,8.7v0h6.2c0-8.2-6.7-14.9-14.9-14.9L66.2,62.8C66.2,62.8,66.2,62.8,66.2,62.8z"
		/>
	<g>
		<rect x="47.6" y="91.8" class="st3" width="2.5" height="2.5"/>
		<rect x="51.7" y="92.6" class="st3" width="3.4" height="1.7"/>
	</g>
	<rect x="57.5" y="91.8" class="st4" width="2.5" height="2.5"/>
	<rect x="61.6" y="92.6" class="st1" width="3.4" height="1.7"/>
	<rect x="67.4" y="91.8" class="st5" width="2.5" height="2.5"/>
	<rect x="71.5" y="92.6" class="st1" width="3.4" height="1.7"/>
	<g>
		<rect x="77.3" y="91.8" class="st1" width="2.5" height="2.5"/>
		<rect x="81.4" y="92.6" class="st1" width="3.4" height="1.7"/>
	</g>
	<rect x="95.1" y="56.6" class="st3" width="37.3" height="1.7"/>
	<rect x="95.1" y="59.9" class="st1" width="18.6" height="1.7"/>
	<g>
		<rect x="95.1" y="67.7" class="st4" width="17.8" height="16.6"/>
		<rect x="114.6" y="67.7" class="st4" width="17.8" height="16.6"/>
	</g>
	<g>
		<g>
			<rect x="95.1" y="100.4" class="st1" width="37.3" height="1.7"/>
			<rect x="95.1" y="97.1" class="st1" width="37.3" height="1.7"/>
			<rect x="95.1" y="93.7" class="st1" width="37.3" height="1.7"/>
			<rect x="95.1" y="90.4" class="st1" width="37.3" height="1.7"/>
			<rect x="95.1" y="103.7" class="st1" width="37.3" height="1.7"/>
			<rect x="95.1" y="107" class="st1" width="18.6" height="1.7"/>
		</g>
	</g>
</g>
</svg>
