<?xml version="1.0" encoding="utf-8"?>
<!-- Generator: Adobe Illustrator 19.2.1, SVG Export Plug-In . SVG Version: 6.00 Build 0)  -->
<svg version="1.1" id="Layer_3" xmlns="http://www.w3.org/2000/svg" xmlns:xlink="http://www.w3.org/1999/xlink" x="0px" y="0px"
	 viewBox="0 0 180 180" style="enable-background:new 0 0 180 180;" xml:space="preserve">
<style type="text/css">
	.st0{fill:#FFFFFF;}
	.st1{fill:#C7DEF2;}
	.st2{fill:#84BFFC;}
	.st3{fill:#FF99A6;}
	.st4{fill:#F05D70;}
	.st5{fill:#D9D8D7;}
</style>
<circle class="st0" cx="90" cy="90" r="90"/>
<g>
	<g>
		<polygon class="st1" points="133.6,27.9 130.6,27.9 129.7,32.3 134.5,32.3 		"/>
		<polygon class="st1" points="123.4,29.8 120.8,31.3 122.2,35.6 126.4,33.2 		"/>
		<polygon class="st1" points="115.6,36.6 114,39.2 117.4,42.2 119.8,38 		"/>
		<polygon class="st1" points="112.1,46.4 112.1,49.4 116.5,50.3 116.5,45.5 		"/>
		<polygon class="st1" points="114,56.6 115.6,59.2 119.8,57.7 117.4,53.6 		"/>
		<polygon class="st1" points="120.8,64.4 123.4,66 126.4,62.6 122.2,60.2 		"/>
		<polygon class="st1" points="130.6,67.9 133.6,67.9 134.5,63.5 129.7,63.5 		"/>
		<polygon class="st1" points="140.8,66 143.4,64.4 142,60.2 137.8,62.6 		"/>
		<polygon class="st1" points="148.7,59.2 150.2,56.6 146.8,53.6 144.4,57.7 		"/>
		<polygon class="st1" points="152.1,49.4 152.1,46.4 147.7,45.5 147.7,50.3 		"/>
		<polygon class="st1" points="150.2,39.2 148.7,36.6 144.4,38 146.8,42.2 		"/>
		<polygon class="st1" points="143.4,31.3 140.8,29.8 137.8,33.2 142,35.6 		"/>
	</g>
	<path class="st2" d="M132.1,32.1c-8.7,0-15.8,7.1-15.8,15.8s7.1,15.8,15.8,15.8c8.7,0,15.8-7.1,15.8-15.8S140.8,32.1,132.1,32.1z
		 M132.1,52.2c-2.4,0-4.4-2-4.4-4.4c0-2.4,2-4.4,4.4-4.4c2.4,0,4.4,2,4.4,4.4C136.5,50.3,134.5,52.2,132.1,52.2z"/>
	<path class="st0" d="M132.1,40.3c-4.2,0-7.6,3.4-7.6,7.6c0,4.2,3.4,7.6,7.6,7.6c4.2,0,7.6-3.4,7.6-7.6
		C139.7,43.7,136.3,40.3,132.1,40.3z M132.1,51.7c-2.1,0-3.8-1.7-3.8-3.8c0-2.1,1.7-3.8,3.8-3.8c2.1,0,3.8,1.7,3.8,3.8
		C135.9,50,134.2,51.7,132.1,51.7z"/>
	<g>
		<polygon class="st3" points="81.7,52.1 74.1,52.1 71.9,63.2 83.9,63.2 		"/>
		<polygon class="st3" points="56.2,56.9 49.6,60.7 53.2,71.4 63.6,65.4 		"/>
		<polygon class="st3" points="36.5,73.8 32.7,80.4 41.1,87.8 47.1,77.4 		"/>
		<polygon class="st3" points="27.9,98.3 27.9,105.9 38.9,108.1 38.9,96.1 		"/>
		<polygon class="st3" points="32.7,123.8 36.5,130.4 47.1,126.8 41.1,116.4 		"/>
		<polygon class="st3" points="49.6,143.5 56.2,147.3 63.6,138.9 53.2,132.9 		"/>
		<polygon class="st3" points="74.1,152.1 81.7,152.1 83.9,141.1 71.9,141.1 		"/>
		<polygon class="st3" points="99.6,147.3 106.2,143.5 102.6,132.9 92.2,138.9 		"/>
		<polygon class="st3" points="119.3,130.4 123.1,123.8 114.6,116.4 108.6,126.8 		"/>
		<polygon class="st3" points="127.9,105.9 127.9,98.3 116.8,96.1 116.8,108.1 		"/>
		<polygon class="st3" points="123.1,80.4 119.3,73.8 108.6,77.4 114.6,87.8 		"/>
		<polygon class="st3" points="106.2,60.7 99.6,56.9 92.2,65.4 102.6,71.4 		"/>
	</g>
	<path class="st4" d="M77.9,62.7c-21.8,0-39.4,17.6-39.4,39.4c0,21.8,17.7,39.4,39.4,39.4c21.8,0,39.4-17.6,39.4-39.4
		C117.3,80.3,99.7,62.7,77.9,62.7z M77.9,113c-6,0-10.9-4.9-10.9-10.9c0-6,4.9-10.9,10.9-10.9c6,0,10.9,4.9,10.9,10.9
		C88.8,108.1,83.9,113,77.9,113z"/>
	<path class="st5" d="M110.4,102.1c0,17.9-14.5,32.5-32.5,32.5c-17.9,0-32.5-14.6-32.5-32.5c0-17.9,14.6-32.5,32.5-32.5
		C95.8,69.6,110.4,84.2,110.4,102.1z"/>
	<path class="st0" d="M108.9,102.1c0,17.1-13.9,31-31,31c-17.1,0-31-13.9-31-31c0-17.1,13.9-31,31-31C95,71.1,108.9,85,108.9,102.1z
		"/>
	<g>
		<ellipse class="st4" cx="77.9" cy="73.7" rx="0.8" ry="0.8"/>
		<ellipse transform="matrix(0.8663 -0.4996 0.4996 0.8663 -30.2198 42.1866)" class="st4" cx="63.7" cy="77.5" rx="0.8" ry="0.8"/>
		<path class="st4" d="M53.7,87.2c0.4,0.2,0.5,0.7,0.3,1.1c-0.2,0.4-0.7,0.5-1.1,0.3c-0.4-0.2-0.5-0.7-0.3-1.1
			C52.8,87.1,53.3,87,53.7,87.2z"/>
		<circle class="st4" cx="49.5" cy="102.1" r="0.8"/>
		<path class="st4" d="M52.9,115.6c0.4-0.2,0.9-0.1,1.1,0.3c0.2,0.4,0.1,0.9-0.3,1.1c-0.4,0.2-0.9,0.1-1.1-0.3
			C52.4,116.3,52.5,115.8,52.9,115.6z"/>
		
			<ellipse transform="matrix(0.5007 -0.8656 0.8656 0.5007 -77.8719 118.3949)" class="st4" cx="63.7" cy="126.7" rx="0.8" ry="0.8"/>
		<path class="st4" d="M77.1,130.5c0-0.4,0.4-0.8,0.8-0.8c0.4,0,0.8,0.4,0.8,0.8c0,0.4-0.4,0.8-0.8,0.8
			C77.4,131.3,77.1,130.9,77.1,130.5z"/>
		
			<ellipse transform="matrix(0.8647 -0.5023 0.5023 0.8647 -51.1808 63.3888)" class="st4" cx="92.1" cy="126.7" rx="0.8" ry="0.8"/>
		<path class="st4" d="M102.1,117c-0.4-0.2-0.5-0.7-0.3-1.1c0.2-0.4,0.7-0.5,1.1-0.3c0.4,0.2,0.5,0.7,0.3,1.1
			C102.9,117.1,102.4,117.2,102.1,117z"/>
		
			<ellipse transform="matrix(1.180563e-03 -1 1 1.180563e-03 4.0204 208.259)" class="st4" cx="106.3" cy="102.1" rx="0.8" ry="0.8"/>
		<ellipse transform="matrix(0.867 -0.4983 0.4983 0.867 -30.1859 62.7421)" class="st4" cx="102.5" cy="87.9" rx="0.8" ry="0.8"/>
		<path class="st4" d="M92.8,77.9c-0.2,0.4-0.7,0.5-1.1,0.3c-0.4-0.2-0.5-0.7-0.3-1.1c0.2-0.4,0.7-0.5,1.1-0.3
			C92.9,77.1,93,77.6,92.8,77.9z"/>
	</g>
	<rect x="76.9" y="102.1" class="st4" width="2" height="15.8"/>
	<rect x="79.5" y="101.5" class="st4" width="19.5" height="1.3"/>
	<path class="st4" d="M81.5,102.1c0,2-1.6,3.6-3.6,3.6c-2,0-3.6-1.6-3.6-3.6c0-2,1.6-3.6,3.6-3.6C79.9,98.5,81.5,100.1,81.5,102.1z"
		/>
	<g>
		<polygon class="st5" points="81.6,105.3 81.1,105.9 62.7,87.5 63.2,86.9 		"/>
		<circle class="st5" cx="77.9" cy="102.1" r="2.4"/>
	</g>
	<ellipse class="st4" cx="77.9" cy="102.1" rx="1.2" ry="1.2"/>
</g>
</svg>
