<?xml version="1.0" encoding="utf-8"?>
<!-- Generator: Adobe Illustrator 19.2.1, SVG Export Plug-In . SVG Version: 6.00 Build 0)  -->
<svg version="1.1" id="Layer_3" xmlns="http://www.w3.org/2000/svg" xmlns:xlink="http://www.w3.org/1999/xlink" x="0px" y="0px"
	 viewBox="0 0 180 180" style="enable-background:new 0 0 180 180;" xml:space="preserve">
<style type="text/css">
	.st0{fill:#FFFFFF;}
	.st1{fill-rule:evenodd;clip-rule:evenodd;fill:#FF99A6;}
	.st2{fill-rule:evenodd;clip-rule:evenodd;fill:#D9D8D7;}
	.st3{fill:#F05D70;}
	.st4{fill-rule:evenodd;clip-rule:evenodd;fill:#F05D70;}
	.st5{fill-rule:evenodd;clip-rule:evenodd;fill:#F7819A;}
	.st6{fill:#CCCBCA;}
</style>
<circle class="st0" cx="90" cy="90" r="90"/>
<g>
	<rect x="36.7" y="66.5" class="st1" width="106.6" height="69.3"/>
	<path class="st2" d="M36.7,87.1c1.1,3.2,2.9,6.2,5.4,8.7c4.3,4.3,9.9,6.6,15.9,6.6h64c6,0,11.7-2.3,15.9-6.6
		c2.5-2.5,4.3-5.4,5.4-8.7V66.5H36.7V87.1z"/>
	<path class="st1" d="M143.3,55.8H36.7v24c0,5.5,2.1,10.9,6.2,15.1c4.2,4.2,9.6,6.2,15.1,6.2h64c5.4,0,10.9-2.1,15.1-6.2
		c4.2-4.2,6.2-9.6,6.2-15.1V55.8z"/>
	<rect x="47.9" y="55" class="st3" width="26.5" height="0.8"/>
	<rect x="105.6" y="55" class="st3" width="26.5" height="0.8"/>
	<rect x="58" y="54.2" class="st4" width="8.5" height="82.4"/>
	<rect x="113.5" y="54.2" class="st4" width="8.5" height="82.4"/>
	<rect x="53" y="75.3" class="st5" width="18.7" height="6.4"/>
	<rect x="108.4" y="75.3" class="st5" width="18.7" height="6.4"/>
	<g>
		<path class="st0" d="M67.3,96.6c-0.6-0.6-1.4-0.9-2.3-0.9h-5.6c-0.9,0-1.7,0.3-2.3,0.9c-0.6,0.6-0.9,1.4-0.9,2.3v7.7H58v-1.3h-0.4
			v-6.4c0-0.5,0.2-1,0.6-1.3c0.3-0.4,0.8-0.5,1.3-0.5h5.6c0.5,0,1,0.2,1.3,0.5c0.3,0.4,0.5,0.8,0.5,1.3v6.4h-0.4v1.3h1.7v-7.7
			C68.3,98,68,97.2,67.3,96.6z"/>
		<path class="st6" d="M61.6,100H63v-3.7c0-0.1-0.1-0.3-0.2-0.4c-0.1-0.1-0.2-0.2-0.4-0.2h-0.3c-0.1,0-0.3,0-0.4,0.2
			c-0.1,0.1-0.1,0.2-0.1,0.4V100z"/>
	</g>
	<g>
		<path class="st0" d="M122.8,96.6c-0.6-0.6-1.4-0.9-2.3-0.9h-5.6c-0.9,0-1.7,0.3-2.3,0.9c-0.6,0.6-0.9,1.4-0.9,2.3v7.7h1.7v-1.3
			h-0.4v-6.4c0-0.5,0.2-1,0.5-1.3c0.4-0.4,0.8-0.5,1.3-0.5h5.6c0.5,0,1,0.2,1.3,0.5c0.4,0.4,0.6,0.8,0.6,1.3v6.4H122v1.3h1.7v-7.7
			C123.7,98,123.4,97.2,122.8,96.6z"/>
		<path class="st6" d="M117,100h1.3v-3.7c0-0.1,0-0.3-0.1-0.4c-0.1-0.1-0.2-0.2-0.4-0.2h-0.3c-0.1,0-0.3,0-0.4,0.2
			c-0.1,0.1-0.2,0.2-0.2,0.4V100z"/>
	</g>
	<path class="st3" d="M108,44.8c-0.9-0.8-2-1.3-3.2-1.3H75.2c-1.2,0-2.3,0.5-3.2,1.3c-0.9,0.9-1.3,2-1.3,3.2V55h3.7V48
		c0-0.2,0.1-0.4,0.2-0.6c0.1-0.2,0.4-0.2,0.6-0.2h29.6c0.2,0,0.4,0.1,0.6,0.2c0.2,0.2,0.2,0.4,0.2,0.6V55h3.7V48
		C109.3,46.7,108.9,45.6,108,44.8z"/>
</g>
</svg>
