<?xml version="1.0" encoding="utf-8"?>
<!-- Generator: Adobe Illustrator 19.2.1, SVG Export Plug-In . SVG Version: 6.00 Build 0)  -->
<svg version="1.1" id="Layer_3" xmlns="http://www.w3.org/2000/svg" xmlns:xlink="http://www.w3.org/1999/xlink" x="0px" y="0px"
	 viewBox="0 0 180 180" style="enable-background:new 0 0 180 180;" xml:space="preserve">
<style type="text/css">
	.st0{fill:#FFFFFF;}
	.st1{fill:#CCCBCA;}
	.st2{fill:#EAEAEA;}
	.st3{fill:#FF99A6;}
	.st4{fill:#F05D70;}
	.st5{fill:#D9D8D7;}
</style>
<circle class="st0" cx="90" cy="90" r="90"/>
<g>
	<polygon class="st1" points="75.5,56.8 75.5,50 44.6,50 44.6,56.8 39.6,56.8 39.6,130 140.4,130 140.4,56.8 	"/>
	<rect x="45.9" y="61.9" class="st0" width="88.3" height="63"/>
	<rect x="35.4" y="66.9" class="st2" width="109.2" height="63"/>
	<path class="st0" d="M111.4,98.5c0,12.1-9.8,21.9-21.9,21.9c-12.1,0-21.9-9.8-21.9-21.9c0-12.1,9.8-21.9,21.9-21.9
		C101.6,76.6,111.4,86.4,111.4,98.5z"/>
	<g>
		<polygon class="st3" points="90.8,80.9 88.2,80.9 87.4,84.7 91.6,84.7 		"/>
		<polygon class="st3" points="81.9,82.5 79.5,83.9 80.8,87.6 84.5,85.5 		"/>
		<polygon class="st3" points="74.9,88.5 73.6,90.8 76.6,93.4 78.7,89.8 		"/>
		<polygon class="st3" points="71.9,97.1 71.9,99.8 75.8,100.6 75.8,96.3 		"/>
		<polygon class="st3" points="73.6,106.1 74.9,108.4 78.7,107.1 76.6,103.5 		"/>
		<polygon class="st3" points="79.5,113 81.9,114.4 84.5,111.4 80.8,109.3 		"/>
		<polygon class="st3" points="88.2,116 90.8,116 91.6,112.2 87.4,112.2 		"/>
		<polygon class="st3" points="97.1,114.4 99.4,113 98.2,109.3 94.5,111.4 		"/>
		<polygon class="st3" points="104.1,108.4 105.4,106.1 102.4,103.5 100.3,107.1 		"/>
		<polygon class="st3" points="107.1,99.8 107.1,97.1 103.2,96.3 103.2,100.6 		"/>
		<polygon class="st3" points="105.4,90.8 104.1,88.5 100.3,89.8 102.4,93.4 		"/>
		<polygon class="st3" points="99.4,83.9 97.1,82.6 94.5,85.5 98.2,87.6 		"/>
	</g>
	<path class="st4" d="M89.5,84.6c-7.7,0-13.9,6.2-13.9,13.9c0,7.7,6.2,13.9,13.9,13.9c7.7,0,13.9-6.2,13.9-13.9
		C103.4,90.8,97.2,84.6,89.5,84.6z M89.5,102.3c-2.1,0-3.8-1.7-3.8-3.8c0-2.1,1.7-3.8,3.8-3.8c2.1,0,3.8,1.7,3.8,3.8
		C93.3,100.6,91.6,102.3,89.5,102.3z"/>
	<path class="st5" d="M89.5,91.8c-3.7,0-6.7,3-6.7,6.7c0,3.7,3,6.7,6.7,6.7c3.7,0,6.7-3,6.7-6.7C96.2,94.8,93.2,91.8,89.5,91.8z
		 M89.5,101.8c-1.8,0-3.3-1.5-3.3-3.3c0-1.8,1.5-3.3,3.3-3.3c1.8,0,3.3,1.5,3.3,3.3C92.8,100.3,91.3,101.8,89.5,101.8z"/>
</g>
</svg>
